<?xml version="1.0" encoding="utf-8"?>
<!-- Generator: Adobe Illustrator 28.2.0, SVG Export Plug-In . SVG Version: 6.00 Build 0)  -->
<svg version="1.1" id="Livello_1" xmlns="http://www.w3.org/2000/svg" xmlns:xlink="http://www.w3.org/1999/xlink" x="0px" y="0px"
	 viewBox="0 0 247 246" style="enable-background:new 0 0 247 246;" xml:space="preserve">
<style type="text/css">
	.st0{fill:#FFFFFF;}
</style>
<path class="st0" d="M61.4,197.2c-21,0-41.6-7.4-52-18.2l5.8-11.4c10,9.8,27.8,17,46.2,17c26.2,0,37.6-11,37.6-24.8
	c0-38.4-86.2-14.8-86.2-66.6c0-20.6,16-38.4,51.6-38.4c15.8,0,32.2,4.6,43.4,12.4l-5,11.8c-12-7.8-26-11.6-38.4-11.6
	c-25.6,0-37,11.4-37,25.4c0,38.4,86.2,15.2,86.2,66.2C113.6,179.6,97.2,197.2,61.4,197.2z"/>
<path class="st0" d="M112.4,194h16.2l32-45c3.6,0.4,7.2,0.6,11.2,0.6h37.6V194h14.8V54h-52.4c-35.6,0-57.2,18-57.2,48
	c0,22,11.6,37.4,32,44L112.4,194z M172.2,137c-28,0-42.8-13-42.8-35c0-22.4,14.8-35.2,42.8-35.2h37.2V137H172.2z"/>
</svg>
