<svg width="247" height="246" viewBox="0 0 247 246" fill="none" xmlns="http://www.w3.org/2000/svg">
<path d="M61.4 197.2C40.4 197.2 19.8 189.8 9.4 179L15.2 167.6C25.2 177.4 43 184.6 61.4 184.6C87.6 184.6 99 173.6 99 159.8C99 121.4 12.8 145 12.8 93.2C12.8 72.6 28.8 54.8 64.4 54.8C80.2 54.8 96.6 59.4 107.8 67.2L102.8 79C90.8 71.2 76.8 67.4 64.4 67.4C38.8 67.4 27.4 78.8 27.4 92.8C27.4 131.2 113.6 108 113.6 159C113.6 179.6 97.2 197.2 61.4 197.2Z" fill="#008EBB"/>
<path d="M112.4 194H128.6L160.6 149C164.2 149.4 167.8 149.6 171.8 149.6H209.4V194H224.2V54H171.8C136.2 54 114.6 72 114.6 102C114.6 124 126.2 139.4 146.6 146L112.4 194ZM172.2 137C144.2 137 129.4 124 129.4 102C129.4 79.6 144.2 66.8 172.2 66.8H209.4V137H172.2Z" fill="#008EBB"/>
</svg>
